<svg width="1295" height="311" viewBox="0 0 1295 311" fill="none" xmlns="http://www.w3.org/2000/svg">
<path d="M506.125 197.625C510.708 197.625 515.167 197.125 519.5 196.125C523.917 195.125 527.75 193.042 531 189.875C534.333 186.708 537.042 182.167 539.125 176.25C541.208 170.25 542.25 162.208 542.25 152.125C542.25 142.208 541.25 134.25 539.25 128.25C537.25 122.167 534.625 117.5 531.375 114.25C528.208 111 524.375 108.875 519.875 107.875C515.458 106.792 510.875 106.25 506.125 106.25H494.375V197.625H506.125ZM400.125 244V197.625C407.458 197.625 412.708 196.667 415.875 194.75C419.042 192.75 420.625 189.042 420.625 183.625V120.375C420.625 114.875 419.042 111.167 415.875 109.25C412.708 107.25 407.458 106.25 400.125 106.25V59.875H532.75C544.667 59.875 556.208 61.4583 567.375 64.625C578.542 67.7917 588.458 72.9583 597.125 80.125C605.875 87.2917 612.875 96.7917 618.125 108.625C623.458 120.375 626.125 134.875 626.125 152.125C626.125 169.375 623.5 183.875 618.25 195.625C613.083 207.375 606 216.833 597 224C588.083 231.167 577.625 236.333 565.625 239.5C553.625 242.667 540.875 244.25 527.375 244.25L400.125 244ZM637.875 174.875C637.875 162.625 640 151.875 644.25 142.625C648.5 133.375 654.542 125.667 662.375 119.5C670.292 113.25 679.792 108.542 690.875 105.375C701.958 102.208 714.333 100.625 728 100.625C741.667 100.625 754.042 102.208 765.125 105.375C776.208 108.542 785.667 113.25 793.5 119.5C801.333 125.667 807.375 133.375 811.625 142.625C815.958 151.875 818.125 162.625 818.125 174.875C818.125 186.958 815.958 197.667 811.625 207C807.375 216.333 801.333 224.167 793.5 230.5C785.667 236.75 776.208 241.458 765.125 244.625C754.042 247.792 741.667 249.375 728 249.375C714.333 249.375 701.958 247.792 690.875 244.625C679.792 241.458 670.292 236.75 662.375 230.5C654.542 224.167 648.5 216.333 644.25 207C640 197.667 637.875 186.958 637.875 174.875ZM709 174.875C709 181.875 709.292 187.833 709.875 192.75C710.542 197.583 711.583 201.5 713 204.5C714.417 207.417 716.333 209.583 718.75 211C721.167 212.333 724.25 213 728 213C731.75 213 734.792 212.333 737.125 211C739.542 209.583 741.458 207.417 742.875 204.5C744.375 201.5 745.417 197.583 746 192.75C746.583 187.833 746.875 181.875 746.875 174.875C746.875 160.875 745.542 151.083 742.875 145.5C740.292 139.833 735.333 137 728 137C724.25 137 721.167 137.667 718.75 139C716.333 140.25 714.417 142.375 713 145.375C711.583 148.292 710.542 152.208 709.875 157.125C709.292 161.958 709 167.875 709 174.875ZM1011.88 266.75C1011.88 280.917 1003.71 291.75 987.375 299.25C971.125 306.75 947.583 310.5 916.75 310.5C905.583 310.5 894.708 310.333 884.125 310C873.542 309.667 864.167 308.542 856 306.625C847.833 304.792 841.25 301.833 836.25 297.75C831.333 293.667 828.875 287.875 828.875 280.375C828.875 274.375 830.792 269.458 834.625 265.625C838.458 261.792 842.583 258.75 847 256.5C841.583 253.25 837.875 249.625 835.875 245.625C833.958 241.625 833 237.25 833 232.5C833 226.833 835.042 221.417 839.125 216.25C843.208 211 849.083 205.917 856.75 201C849.25 196.083 843.5 190.083 839.5 183C835.5 175.917 833.5 167.5 833.5 157.75C833.5 148.333 835.458 140.083 839.375 133C843.292 125.917 848.917 120 856.25 115.25C863.583 110.5 872.333 106.875 882.5 104.375C892.667 101.875 904.083 100.625 916.75 100.625C930.333 100.625 942.583 102.083 953.5 105C964.5 107.917 973.833 112.333 981.5 118.25C983 116.25 985.042 114.292 987.625 112.375C989.792 110.875 992.542 109.5 995.875 108.25C999.208 106.917 1003.29 106.25 1008.12 106.25H1019.62V152.625H1011.38C1007.79 152.625 1005.04 153.625 1003.12 155.625C1001.29 157.542 1000.21 159.417 999.875 161.25C996.958 178.833 988.458 192.25 974.375 201.5C960.292 210.75 941.083 215.375 916.75 215.375C903.083 215.375 890.708 213.917 879.625 211C877.875 212.167 877 213.625 877 215.375C877 218.625 878.917 220.917 882.75 222.25C886.583 223.583 891.667 224.5 898 225C904.333 225.417 911.542 225.583 919.625 225.5C927.708 225.333 935.958 225.458 944.375 225.875C952.875 226.208 961.167 226.958 969.25 228.125C977.417 229.292 984.625 231.375 990.875 234.375C997.208 237.375 1002.29 241.458 1006.12 246.625C1009.96 251.875 1011.88 258.583 1011.88 266.75ZM899.25 157.75C899.25 166.417 900.458 173.125 902.875 177.875C905.292 182.542 909.917 184.875 916.75 184.875C923.667 184.875 928.333 182.542 930.75 177.875C933.167 173.125 934.375 166.417 934.375 157.75C934.375 149.167 933.167 142.625 930.75 138.125C928.333 133.625 923.667 131.375 916.75 131.375C909.917 131.375 905.292 133.625 902.875 138.125C900.458 142.625 899.25 149.167 899.25 157.75ZM922.375 268.625C913.458 268.625 905.375 268.375 898.125 267.875C890.875 267.458 884.333 266.833 878.5 266C877.667 267.417 877.25 268.875 877.25 270.375C877.25 276.375 880.5 280.292 887 282.125C893.5 284.042 902.042 285 912.625 285C926.792 285 937.125 284.125 943.625 282.375C950.208 280.708 953.5 278.333 953.5 275.25C953.5 273.667 952.542 272.458 950.625 271.625C948.792 270.792 946.333 270.125 943.25 269.625C940.25 269.125 936.917 268.833 933.25 268.75C929.583 268.667 925.958 268.625 922.375 268.625ZM1027.38 244V197.625C1034.71 197.625 1039.96 196.667 1043.12 194.75C1046.29 192.75 1047.88 189.042 1047.88 183.625V120.375C1047.88 114.875 1046.29 111.167 1043.12 109.25C1039.96 107.25 1034.71 106.25 1027.38 106.25V59.875H1142V106.25C1134.67 106.25 1129.42 107.25 1126.25 109.25C1123.17 111.167 1121.62 114.875 1121.62 120.375V183.625C1121.62 189.042 1123.17 192.75 1126.25 194.75C1129.42 196.667 1134.67 197.625 1142 197.625V244H1027.38ZM1239.88 59.875V106.25H1277.25V152.625H1239.88V191C1239.88 196.5 1240.62 201 1242.12 204.5C1243.71 208 1246.92 209.75 1251.75 209.75C1254.42 209.75 1256.54 209.25 1258.12 208.25C1259.79 207.167 1261.08 205.792 1262 204.125C1263 202.375 1263.62 200.417 1263.88 198.25C1264.12 196 1264.25 193.583 1264.25 191V172.375H1278.62V192.5C1278.62 200.583 1277.75 208.125 1276 215.125C1274.33 222.125 1271.42 228.167 1267.25 233.25C1263.17 238.333 1257.58 242.375 1250.5 245.375C1243.42 248.375 1234.5 249.875 1223.75 249.875C1211.83 249.875 1202.33 248.417 1195.25 245.5C1188.17 242.583 1182.79 238.583 1179.12 233.5C1175.46 228.417 1173.04 222.375 1171.88 215.375C1170.79 208.375 1170.25 200.75 1170.25 192.5V152.625H1150.62V111.375C1156.88 111.375 1162.67 110.042 1168 107.375C1173.42 104.625 1178.04 100.875 1181.88 96.125C1185.79 91.2917 1188.79 85.7917 1190.88 79.625C1193.04 73.4583 1194.12 66.875 1194.12 59.875H1239.88Z" fill="black"/>
<path d="M236.257 226.313C248.874 246.178 254.82 256.725 254.82 267.727C254.82 289.453 238.683 299.988 216.944 299.988C207.362 299.988 201.176 299.975 185.543 291.843C185.543 291.843 175.414 282.573 151.709 283.525C127.784 282.58 117.648 291.959 117.648 291.959C102.015 300.086 96.051 300 86.4808 300C64.742 300 48.593 289.478 48.593 267.739C48.593 256.737 54.5575 246.203 67.1683 226.325C67.1683 226.325 91.0079 186.736 111.666 168.112C126.592 154.671 148.356 154.721 148.356 154.721H155.069C155.069 154.721 177.785 154.659 191.778 168.112C211.797 187.412 236.257 226.319 236.257 226.313ZM98.6002 128.246C121.328 128.246 139.75 99.5352 139.75 64.1229C139.75 28.7107 121.328 0 98.6002 0C75.8724 0 57.4507 28.7107 57.4507 64.1229C57.4507 99.5352 75.8724 128.246 98.6002 128.246ZM59.1645 190.348C75.9154 182.614 79.7362 155.194 67.6905 129.1C55.6448 103.006 32.3028 88.1161 15.5518 95.8435C-1.19916 103.571 -5.01374 130.998 7.02582 157.092C19.0715 183.186 42.4135 198.069 59.1645 190.348ZM194.272 128.246C216.999 128.246 235.427 99.5352 235.427 64.1229C235.427 28.7107 216.999 0 194.272 0C171.544 0 153.122 28.7107 153.122 64.1229C153.122 99.5352 171.544 128.246 194.272 128.246ZM277.326 95.8373C260.569 88.1038 237.233 102.994 225.188 129.094C213.142 155.194 216.963 182.614 233.72 190.348C250.477 198.075 273.813 183.186 285.858 157.092C297.904 130.998 294.083 103.571 277.326 95.8373Z" fill="#030104"/>
</svg>
