<svg width="228" height="203" viewBox="0 0 228 203" fill="none" xmlns="http://www.w3.org/2000/svg">
<path fill-rule="evenodd" clip-rule="evenodd" d="M209 42.2917V160.708C209 174.723 196.24 186.083 180.5 186.083H47.5C31.7599 186.083 19 174.723 19 160.708V42.2917C19 28.2775 31.7599 16.9167 47.5 16.9167H180.5C196.24 16.9167 209 28.2775 209 42.2917ZM104.5 50.7501H161.5C166.747 50.7501 171 54.537 171 59.2084C171 63.8798 166.747 67.6668 161.5 67.6668H104.5C99.2533 67.6668 95 63.8798 95 59.2084C95 54.537 99.2533 50.7501 104.5 50.7501ZM76 59.2084C75.985 58.1031 75.7268 57.0111 75.24 55.9942C74.7589 54.9692 74.0841 54.0252 73.245 53.203C72.3216 52.4559 71.2613 51.8551 70.11 51.4267C66.5722 50.1022 62.4868 50.803 59.755 53.203C58.9159 54.0252 58.2411 54.9692 57.76 55.9942C57.2732 57.0111 57.015 58.1031 57 59.2084C56.9854 61.4567 57.9767 63.6176 59.755 65.2138C61.5755 66.7594 63.9847 67.6356 66.5 67.6667C67.7462 67.6953 68.9825 67.4636 70.11 66.9901C71.2613 66.5617 72.3216 65.961 73.245 65.2138C74.981 63.5929 75.965 61.4479 76 59.2084ZM70.11 93.7184C66.5722 92.3939 62.4868 93.0947 59.755 95.4947C58.8753 96.2886 58.1952 97.2401 57.76 98.2859C57.2732 99.3028 57.015 100.395 57 101.5C56.9854 103.748 57.9767 105.909 59.755 107.506C61.5755 109.051 63.9847 109.927 66.5 109.958C67.7414 109.945 68.9679 109.715 70.11 109.282C71.2613 108.853 72.3216 108.253 73.245 107.506L74.385 106.237C74.7445 105.765 75.0321 105.253 75.24 104.714C75.5801 104.245 75.8364 103.731 76 103.192C76.0466 102.629 76.0466 102.063 76 101.5C75.965 99.2606 74.981 97.1156 73.245 95.4947C72.3216 94.7475 71.2613 94.1468 70.11 93.7184ZM104.5 93.0417H161.5C166.747 93.0417 171 96.8287 171 101.5C171 106.171 166.747 109.958 161.5 109.958H104.5C99.2533 109.958 95 106.171 95 101.5C95 96.8287 99.2533 93.0417 104.5 93.0417ZM73.245 137.786C72.3216 137.039 71.2613 136.438 70.11 136.01C66.5722 134.686 62.4868 135.386 59.755 137.786C58.8901 138.591 58.2121 139.539 57.76 140.578C56.7437 142.625 56.7437 144.959 57.76 147.006C58.2121 148.044 58.8901 148.993 59.755 149.797C61.5755 151.343 63.9847 152.219 66.5 152.25C67.7414 152.237 68.9679 152.007 70.11 151.573C71.2613 151.145 72.3216 150.544 73.245 149.797C74.1099 148.993 74.7879 148.044 75.24 147.006C76.2563 144.959 76.2563 142.625 75.24 140.578C74.7879 139.539 74.1099 138.591 73.245 137.786ZM104.5 135.333H161.5C166.747 135.333 171 139.12 171 143.792C171 148.463 166.747 152.25 161.5 152.25H104.5C99.2533 152.25 95 148.463 95 143.792C95 139.12 99.2533 135.333 104.5 135.333ZM180.5 33.8334C185.747 33.8334 190 37.6203 190 42.2917V160.708C190 165.38 185.747 169.167 180.5 169.167H47.5C42.2533 169.167 38 165.38 38 160.708V42.2917C38 37.6203 42.2533 33.8334 47.5 33.8334H180.5Z" fill="#231F20"/>
</svg>
