<svg width="51" height="48" viewBox="0 0 51 48" fill="none" xmlns="http://www.w3.org/2000/svg">
<path fill-rule="evenodd" clip-rule="evenodd" d="M35.5041 14C35.5041 8.47715 30.8289 4 25.0617 4C19.2946 4 14.6194 8.47715 14.6194 14C14.6194 19.5228 19.2946 24 25.0617 24H22.9732C12.5924 24 4.177 32.0589 4.177 42C4.177 43.1046 5.11204 44 6.26547 44H43.8579C45.0114 44 45.9464 43.1046 45.9464 42C45.9464 32.0589 37.531 24 27.1502 24H25.0617C27.8312 24 30.4872 22.9464 32.4456 21.0711C34.4039 19.1957 35.5041 16.6522 35.5041 14ZM22.9732 28C15.7046 27.9982 9.53852 33.1106 8.50013 40H41.6233C40.5849 33.1106 34.4188 27.9982 27.1502 28H22.9732ZM18.7963 14C18.7963 17.3137 21.6014 20 25.0617 20C26.7234 20 28.317 19.3679 29.492 18.2426C30.667 17.1174 31.3271 15.5913 31.3271 14C31.3271 10.6863 28.522 8 25.0617 8C21.6014 8 18.7963 10.6863 18.7963 14Z" fill="#231F20"/>
</svg>
